<?xml version="1.0" standalone="no"?>
<!DOCTYPE svg PUBLIC "-//W3C//DTD SVG 20010904//EN"
 "http://www.w3.org/TR/2001/REC-SVG-20010904/DTD/svg10.dtd">
<svg version="1.0" xmlns="http://www.w3.org/2000/svg"
 width="469.000000pt" height="469.000000pt" viewBox="0 0 469.000000 469.000000"
 preserveAspectRatio="xMidYMid meet">
<metadata>
Created by potrace 1.11, written by Peter Selinger 2001-2013
</metadata>
<g transform="translate(0.000000,469.000000) scale(0.100000,-0.100000)"
fill="#000000" stroke="none">
<path d="M0 2345 l0 -2345 2345 0 2345 0 0 2345 0 2345 -2345 0 -2345 0 0
-2345z m1066 1713 c401 -3 409 -3 409 -23 0 -20 -8 -20 -382 -25 l-383 -5 460
-460 460 -461 27 28 c78 81 253 177 408 225 82 24 104 27 260 27 147 1 182 -2
255 -22 112 -30 288 -118 372 -186 l67 -55 442 447 443 447 -381 5 c-210 3
-385 8 -388 12 -4 4 -5 14 -2 23 6 13 56 15 416 15 262 0 412 4 416 10 21 33
25 -10 25 -242 0 -139 -3 -331 -7 -425 -6 -159 -8 -173 -25 -173 -17 0 -18 17
-18 372 l0 373 -447 -447 -447 -447 38 -41 c93 -103 175 -260 218 -418 31
-114 31 -364 1 -477 -44 -161 -117 -301 -219 -420 l-43 -51 449 -454 449 -455
0 378 c1 359 2 377 19 377 17 0 19 -14 25 -172 10 -241 9 -678 -1 -678 -4 0
-12 4 -18 10 -6 6 -166 11 -419 12 -357 3 -410 5 -410 18 0 13 52 16 388 20
l387 5 -452 453 -453 452 -74 -56 c-367 -276 -870 -268 -1227 20 l-79 65 -458
-457 c-251 -251 -457 -460 -457 -464 0 -5 173 -8 385 -8 378 0 385 0 385 -20
0 -20 -7 -20 -415 -20 -384 0 -415 -1 -424 -18 -7 -12 -10 117 -11 416 l0 433
23 -3 22 -3 -4 -375 -3 -375 463 460 c255 253 464 460 465 460 1 0 -26 37 -60
82 -282 374 -272 885 24 1243 l37 45 -464 465 -465 465 4 -380 c3 -374 3 -380
-17 -380 -20 0 -20 8 -23 429 -2 359 0 427 11 417 10 -7 139 -12 423 -13z"/>
<path d="M2198 3320 c-107 -17 -183 -41 -284 -90 -277 -134 -463 -376 -525
-685 -17 -86 -14 -275 6 -370 80 -380 397 -684 779 -745 96 -16 309 -8 396 15
88 23 238 94 318 152 369 263 501 758 311 1170 -153 334 -467 544 -834 558
-60 2 -136 0 -167 -5z m365 -257 c116 -41 186 -84 273 -168 115 -113 178 -227
210 -385 64 -316 -100 -646 -391 -789 -117 -58 -190 -75 -325 -75 -136 0 -207
17 -330 77 -70 34 -102 58 -180 136 -78 78 -104 112 -138 181 -60 122 -76 192
-77 335 0 98 4 133 23 195 85 270 280 454 547 516 39 9 102 13 180 10 102 -3
133 -7 208 -33z"/>
<path d="M2205 3046 c-217 -42 -388 -173 -489 -374 -49 -97 -68 -185 -67 -307
1 -188 63 -337 196 -470 140 -140 265 -195 455 -203 141 -5 220 11 340 70 121
60 240 178 298 298 56 114 75 193 75 315 0 117 -19 199 -69 300 -133 272 -444
428 -739 371z"/>
</g>
</svg>
